# xmcd
#
# Track frame offsets:
#	150
#	20653
#	44515
#	63138
#	88900
#	112205
#	130443
#	151023
#	171398
#	192105
#	215430
#	231863
#
# Disc length: 3403
#
# Revision: 1
# Processed by: cddbd v1.5.1PL0 Copyright (c) Steve Scherf et al.
# Submitted via: CDex 1.40Beta8
# Normalized: r0:TRMNUM
#
DISCID=aa0d490c
DTITLE=今井美樹 - Pearl
DYEAR=2002
DGENRE=Blues
TTITLE0=海風
TTITLE1=Pearl
TTITLE2=微笑的人
TTITLE3=吾友
TTITLE4=Side by Side
TTITLE5=A Day in The Life
TTITLE6=肉桂芬芳
TTITLE7=如果能再相遇
TTITLE8=我所愛的
TTITLE9=回到家了
TTITLE10=Gift
TTITLE11=Goodbye Yesterday 
EXTD=YEAR: 2002 ID3G: 0
EXTT0=
EXTT1=
EXTT2=
EXTT3=
EXTT4=
EXTT5=
EXTT6=
EXTT7=
EXTT8=
EXTT9=
EXTT10=
EXTT11=
PLAYORDER=
